<svg width="38" height="38" viewBox="0 0 38 38" fill="none" xmlns="http://www.w3.org/2000/svg">
<g clip-path="url(#clip0_2_406)">
<path d="M38 19C38 8.50658 29.4934 0 19 0C8.50658 0 0 8.50658 0 19C0 28.4833 6.94799 36.3438 16.0312 37.7692V24.4922H11.207V19H16.0312V14.8141C16.0312 10.0522 18.8679 7.42187 23.2078 7.42187C25.286 7.42187 27.4609 7.79297 27.4609 7.79297V12.4687H25.0652C22.705 12.4687 21.9688 13.9335 21.9688 15.4375V19H27.2383L26.3959 24.4922H21.9688V37.7692C31.052 36.3438 38 28.4833 38 19Z" fill="#1877F2"/>
<path d="M26.3959 24.4922L27.2383 19H21.9688V15.4375C21.9688 13.9349 22.705 12.4688 25.0652 12.4688H27.4609V7.79297C27.4609 7.79297 25.2867 7.42188 23.2078 7.42188C18.8679 7.42188 16.0312 10.0522 16.0312 14.8141V19H11.207V24.4922H16.0312V37.7692C17.9985 38.0769 20.0015 38.0769 21.9688 37.7692V24.4922H26.3959Z" fill="white"/>
</g>
<defs>
<clipPath id="clip0_2_406">
<rect width="38" height="38" fill="white"/>
</clipPath>
</defs>
</svg>
