<svg width="38" height="38" viewBox="0 0 38 38" fill="none" xmlns="http://www.w3.org/2000/svg">
<path d="M27.1962 13.7172C29.6398 15.4702 32.6334 16.5016 35.8666 16.5016V10.2578C35.2547 10.2579 34.6444 10.1939 34.0457 10.0666V14.9814C30.8128 14.9814 27.8196 13.95 25.3753 12.1971V24.9389C25.3753 31.313 20.2265 36.4799 13.8754 36.4799C11.5056 36.4799 9.30307 35.7609 7.47339 34.5278C9.56167 36.6707 12.4739 38 15.6958 38C22.0473 38 27.1964 32.8331 27.1964 26.4587V13.7172H27.1962ZM29.4424 7.41793C28.1935 6.04871 27.3736 4.27926 27.1962 2.32305V1.51996H25.4707C25.905 4.0063 27.3864 6.13048 29.4424 7.41793ZM11.4904 29.6365C10.7927 28.7184 10.4157 27.5953 10.4173 26.4405C10.4173 23.5252 12.7724 21.1615 15.6779 21.1615C16.2194 21.1613 16.7576 21.2445 17.2737 21.4089V15.0255C16.6706 14.9425 16.062 14.9073 15.4536 14.9202V19.8888C14.9372 19.7244 14.3987 19.641 13.8571 19.6415C10.9516 19.6415 8.59663 22.005 8.59663 24.9206C8.59663 26.9822 9.77377 28.7671 11.4904 29.6365Z" fill="#FF004F"/>
<path d="M25.3752 12.1969C27.8195 13.9498 30.8127 14.9813 34.0456 14.9813V10.0665C32.241 9.68074 30.6435 8.73432 29.4423 7.41793C27.3862 6.13035 25.9049 4.00617 25.4706 1.51996H20.9381V26.4585C20.9279 29.3658 18.5768 31.7199 15.6776 31.7199C13.9691 31.7199 12.4512 30.9026 11.49 29.6365C9.77342 28.7671 8.59628 26.9821 8.59628 24.9208C8.59628 22.0054 10.9512 19.6416 13.8567 19.6416C14.4134 19.6416 14.95 19.7286 15.4533 19.8889V14.9204C9.21375 15.0497 4.19568 20.1661 4.19568 26.4586C4.19568 29.5998 5.44529 32.4473 7.47343 34.528C9.30311 35.7609 11.5057 36.48 13.8754 36.48C20.2266 36.48 25.3754 31.3129 25.3754 24.9389V12.1969H25.3752Z" fill="black"/>
<path d="M34.0457 10.0665V8.7376C32.4184 8.74008 30.823 8.28272 29.4423 7.41781C30.6645 8.76068 32.2739 9.68662 34.0457 10.0665ZM25.4706 1.51997C25.4292 1.28236 25.3974 1.04318 25.3753 0.803089V0H19.1172V24.9388C19.1072 27.8457 16.7563 30.1998 13.8568 30.1998C13.0055 30.1998 12.2018 29.997 11.49 29.6367C12.4513 30.9026 13.9691 31.7198 15.6776 31.7198C18.5766 31.7198 20.928 29.3659 20.9382 26.4586V1.51997H25.4706ZM15.4536 14.9204V13.5057C14.9306 13.4339 14.4034 13.3979 13.8756 13.3982C7.52387 13.3981 2.375 18.5652 2.375 24.9388C2.375 28.9347 4.39859 32.4562 7.4736 34.5277C5.44546 32.4472 4.19585 29.5995 4.19585 26.4585C4.19585 20.1662 9.21379 15.0498 15.4536 14.9204Z" fill="#00F2EA"/>
</svg>
